<svg xmlns="http://www.w3.org/2000/svg" xmlns:xlink="http://www.w3.org/1999/xlink" width="100" height="33" viewBox="0 0 100 33">
    <defs>
        <path id="a" d="M0 .256h99.83V33H0z"/>
        <path id="c" d="M0 .256h99.83V33H0"/>
    </defs>
    <g fill="none" fill-rule="evenodd">
        <g>
            <mask id="b" fill="#fff">
                <use xlink:href="#a"/>
            </mask>
            <path fill="#FF7101" d="M2.183.58a.374.374 0 0 1 .346-.324h.309c.096 0 .27.081.327.203l4.47 8.723h.039l4.47-8.723c.057-.122.23-.203.327-.203h.308c.154 0 .328.142.347.324l2.177 13.568c.039.263-.135.445-.366.445h-2.273a.4.4 0 0 1-.367-.323l-.866-6.24h-.039l-3.237 6.543c-.058.12-.231.222-.327.222H7.48c-.116 0-.27-.101-.327-.222L3.898 8.03h-.04l-.847 6.239a.382.382 0 0 1-.366.323H.372c-.232 0-.405-.182-.367-.445L2.183.58z" mask="url(#b)"/>
        </g>
        <path fill="#FF7101" d="M30.488 9.747l-1.464-3.332h-.02L27.56 9.747h2.928zm-7.919 4.32L28.6.48c.059-.121.194-.223.329-.223h.192c.135 0 .27.102.328.223l6.03 13.589c.116.262-.039.525-.327.525h-2.139c-.346 0-.501-.121-.674-.505l-.694-1.595h-5.24l-.694 1.616c-.096.241-.308.484-.693.484h-2.12c-.289 0-.443-.263-.328-.525zM25.758 19.25c0-.202.154-.384.366-.384h2.292c.193 0 .367.182.367.383v10.783h4.585c.212 0 .366.182.366.383v2.202a.375.375 0 0 1-.366.383h-7.244c-.212 0-.366-.182-.366-.383V19.249zM44.47.62a.37.37 0 0 1 .366-.363h.482l7.687 7.753h.02V.842c0-.202.154-.383.365-.383h2.312c.193 0 .367.181.367.383v13.589a.37.37 0 0 1-.367.363h-.308a.547.547 0 0 1-.25-.1l-7.61-8.017h-.02v7.532c0 .202-.154.384-.366.384h-2.292c-.193 0-.367-.182-.367-.384L44.47.62zM51.744 28.154l-1.464-3.332h-.02l-1.445 3.332h2.929zm-7.92 4.321l6.031-13.589c.058-.121.193-.222.328-.222h.193c.134 0 .27.101.327.222l6.03 13.59c.116.261-.038.524-.327.524h-2.139c-.347 0-.5-.121-.674-.505l-.694-1.595h-5.24l-.693 1.616c-.097.242-.309.484-.694.484h-2.12c-.288 0-.442-.263-.327-.525zM72.44.276c1.618 0 3.39.707 4.7 1.898a.364.364 0 0 1 .039.546l-1.522 1.695a.392.392 0 0 1-.52.02c-.733-.706-1.58-.968-2.524-.968-2.1 0-3.795 1.857-3.795 4.078 0 2.201 1.714 4.018 3.814 4.018.559 0 1.137-.08 1.715-.323v-1.17h-1.214a.358.358 0 0 1-.366-.364v-2c0-.221.154-.382.366-.382h3.872c.193 0 .347.18.347.383l.02 5.432c0 .1-.077.262-.155.322 0 0-1.984 1.313-4.777 1.313-3.834 0-6.917-3.19-6.917-7.229 0-4.038 3.083-7.269 6.917-7.269M70.07 21.833h-2.756c-.212 0-.366-.181-.366-.383V19.25c0-.202.154-.384.366-.384h8.555c.21 0 .366.182.366.384v2.201c0 .202-.155.383-.366.383h-2.756v10.783c0 .202-.173.383-.366.383h-2.312c-.192 0-.366-.181-.366-.383V21.833z"/>
        <g>
            <mask id="d" fill="#fff">
                <use xlink:href="#c"/>
            </mask>
            <path fill="#FF7101" d="M92.894 11.563c2.12 0 3.854-1.817 3.854-4.018 0-2.22-1.734-4.058-3.854-4.058-2.1 0-3.833 1.837-3.833 4.058 0 2.201 1.734 4.018 3.833 4.018m0-11.307c3.854 0 6.937 3.25 6.937 7.29 0 4.038-3.083 7.248-6.937 7.248-3.852 0-6.916-3.21-6.916-7.249 0-4.038 3.064-7.29 6.916-7.29" mask="url(#d)"/>
        </g>
        <path fill="#FF7101" d="M88.916 19.249c0-.202.154-.383.366-.383h7.976c.212 0 .366.181.366.383v2.201c0 .202-.154.383-.366.383h-5.336v2.504h4.392c.193 0 .366.182.366.384v2.2a.375.375 0 0 1-.366.385h-4.392v2.726h5.336c.212 0 .366.181.366.383v2.201c0 .202-.154.383-.366.383h-7.976c-.212 0-.366-.181-.366-.383V19.25zM8.645 26.55c0 .868.655 1.595 1.522 1.595.81 0 1.426-.727 1.426-1.595v-1.918H8.645v1.918zm5.414-5.068c.193 0 .366.161.366.383v4.866c0 2.484-1.927 4.523-4.258 4.523-2.389 0-4.334-2.039-4.334-4.502v-2.12H1.304c-.192 0-.365-.182-.365-.384v-2.383c0-.222.173-.383.365-.383H14.06z"/>
    </g>
</svg>
